. 

TorrentDay - Your Gateway To The Scene.

we are the most on-time tracker around the globe, You can download releases whenever they release out by group uploaders. no Wait Time.

TorrentDay is a private tracker torrent website, which is totally free, safe and fast.


Higher Speed Download is available at: TorrentDay - Your Gateway To The Scene.


.

Torrentday : Clean RAR Scene File - Enjoy and don't forget to leave Thanks


Enjoy :)

...................................NFO:....................................

.SPRiNTER proudly presents...



Chevolution.2008.DVDRip.XviD-SPRiNTER

Director: Luis Lopez, Trisha Ziff
url: http://www.imdb.com/title/tt1202160/
Subtitles: None
Date: 2010.01
Genre: Documentary

Cast:

 Gerry Adams ...  Himself 
 Antonio Banderas ...  Himself 
 Gael Garca Bernal ...  Himself 
 Ernesto 'Che' Guevara ...  Himself (archive footage) 
 Tom Morello ...  Himself 
 Miguel Njera ...  Narrator 


Release notes:

Enjoy!

Format                           : AVI
Format/Info                      : Audio Video Interleave
File size                        : 700 MiB
Duration                         : 1h 29mn
Overall bit rate                 : 1 095 Kbps
Writing application              : VirtualDubMod 1.5.10.2 (build 2540/release)
Writing library                  : VirtualDubMod build 2540/release

Video
ID                               : 0
Format                           : MPEG-4 Visual
Format profile                   : AdvancedSimple@L5
Format settings, BVOP            : Yes
Format settings, QPel            : No
Format settings, GMC             : No warppoints
Format settings, Matrix          : Default (H.263)
Codec ID                         : XVID
Codec ID/Hint                    : XviD
Duration                         : 1h 29mn
Bit rate                         : 953 Kbps
Width                            : 640 pixels
Height                           : 352 pixels
Display aspect ratio             : 16:9
Frame rate                       : 23.976 fps
Resolution                       : 24 bits
Colorimetry                      : 4:2:0
Scan type                        : Progressive
Bits/(Pixel*Frame)               : 0.176
Stream size                      : 609 MiB (87%)
Writing library                  : XviD 1.2.1 (UTC 2008-12-04)

Audio
ID                               : 1
Format                           : MPEG Audio
Format version                   : Version 1
Format profile                   : Layer 3
Format_Settings_Mode             : Joint stereo / MS Stereo
Codec ID                         : 55
Codec ID/Hint                    : MP3
Duration                         : 1h 29mn
Bit rate mode                    : Variable
Bit rate                         : 130 Kbps
Nominal bit rate                 : 128 Kbps
Channel(s)                       : 2 channels
Sampling rate                    : 48.0 KHz
Resolution                       : 16 bits
Stream size                      : 82.8 MiB (12%)
Alignment                        : Aligned on interleaves
Interleave, duration             : 24 ms (0.58 video frame)
Interleave, preload duration     : 142 ms
Writing library                  : LAME3.90.
Encoding settings                : -m j -V 4 -q 2 -lowpass 17.6 --abr 128